<svg width="1288" height="282" viewBox="0 0 1288 282" fill="none" xmlns="http://www.w3.org/2000/svg">
<g clip-path="url(#clip0_3737_44)">
<rect width="33" height="271" fill="var(--color-dark-1)"/>
<rect x="211" width="54" height="271" fill="var(--color-dark-1)"/>
<rect x="47" width="14" height="271" fill="var(--color-dark-1)"/>
<rect x="94" width="14" height="271" fill="var(--color-dark-1)"/>
<rect x="144" width="40" height="271" fill="var(--color-dark-1)"/>
<rect width="39" height="271" transform="matrix(-1 0 0 1 484 0)" fill="var(--color-dark-1)"/>
<rect width="14" height="271" transform="matrix(-1 0 0 1 355 0)" fill="var(--color-dark-1)"/>
<rect width="14" height="271" transform="matrix(-1 0 0 1 403 0)" fill="var(--color-dark-1)"/>
<rect width="27" height="271" transform="matrix(-1 0 0 1 318 0)" fill="var(--color-dark-1)"/>
<mask id="path-10-outside-1_3737_44" maskUnits="userSpaceOnUse" x="523" y="0" width="742" height="73" fill="black">
<rect fill="var(--color-dark-1)" x="523" width="742" height="73"/>
<path d="M575.924 25.208C575.924 28.9493 575.065 32.384 573.348 35.512C571.631 38.5787 568.993 41.0627 565.436 42.964C561.879 44.8653 557.463 45.816 552.188 45.816H542.436V69H526.704V4.416H552.188C557.34 4.416 561.695 5.30533 565.252 7.084C568.809 8.86266 571.477 11.316 573.256 14.444C575.035 17.572 575.924 21.16 575.924 25.208ZM550.992 33.304C553.997 33.304 556.236 32.5987 557.708 31.188C559.18 29.7773 559.916 27.784 559.916 25.208C559.916 22.632 559.18 20.6387 557.708 19.228C556.236 17.8173 553.997 17.112 550.992 17.112H542.436V33.304H550.992ZM617.418 69L603.986 44.62H600.214V69H584.482V4.416H610.886C615.977 4.416 620.301 5.30533 623.858 7.084C627.477 8.86266 630.175 11.316 631.954 14.444C633.733 17.5107 634.622 20.9453 634.622 24.748C634.622 29.0413 633.395 32.8747 630.942 36.248C628.55 39.6213 624.993 42.0133 620.27 43.424L635.174 69H617.418ZM600.214 33.488H609.966C612.849 33.488 614.995 32.7827 616.406 31.372C617.878 29.9613 618.614 27.968 618.614 25.392C618.614 22.9387 617.878 21.0067 616.406 19.596C614.995 18.1853 612.849 17.48 609.966 17.48H600.214V33.488ZM661.61 56.12H689.394V69H643.762V57.04L671.362 17.296H643.762V4.416H689.394V16.376L661.61 56.12ZM715.77 17.02V30.084H736.838V42.228H715.77V56.396H739.598V69H700.038V4.416H739.598V17.02H715.77ZM823.32 4.416V69H807.588V30.268L793.144 69H780.448L765.912 30.176V69H750.18V4.416H768.764L786.888 49.128L804.828 4.416H823.32ZM850.733 17.02V30.084H871.801V42.228H850.733V56.396H874.561V69H835.001V4.416H874.561V17.02H850.733ZM922.586 69L900.874 40.48V69H885.142V4.416H900.874V32.752L922.402 4.416H940.894L915.87 36.064L941.814 69H922.586ZM1042.66 4.416V69H1026.93V30.268L1012.49 69H999.791L985.255 30.176V69H969.523V4.416H988.107L1006.23 49.128L1024.17 4.416H1042.66ZM1070.08 4.416V69H1054.34V4.416H1070.08ZM1114.78 69L1101.35 44.62H1097.58V69H1081.84V4.416H1108.25C1113.34 4.416 1117.66 5.30533 1121.22 7.084C1124.84 8.86266 1127.54 11.316 1129.32 14.444C1131.1 17.5107 1131.98 20.9453 1131.98 24.748C1131.98 29.0413 1130.76 32.8747 1128.3 36.248C1125.91 39.6213 1122.36 42.0133 1117.63 43.424L1132.54 69H1114.78ZM1097.58 33.488H1107.33C1110.21 33.488 1112.36 32.7827 1113.77 31.372C1115.24 29.9613 1115.98 27.968 1115.98 25.392C1115.98 22.9387 1115.24 21.0067 1113.77 19.596C1112.36 18.1853 1110.21 17.48 1107.33 17.48H1097.58V33.488ZM1172.77 69.644C1166.7 69.644 1161.12 68.2333 1156.03 65.412C1151 62.5907 1146.98 58.6653 1143.98 53.636C1141.03 48.5453 1139.56 42.8413 1139.56 36.524C1139.56 30.2067 1141.03 24.5333 1143.98 19.504C1146.98 14.4747 1151 10.5493 1156.03 7.728C1161.12 4.90667 1166.7 3.496 1172.77 3.496C1178.84 3.496 1184.4 4.90667 1189.42 7.728C1194.52 10.5493 1198.5 14.4747 1201.38 19.504C1204.33 24.5333 1205.8 30.2067 1205.8 36.524C1205.8 42.8413 1204.33 48.5453 1201.38 53.636C1198.44 58.6653 1194.45 62.5907 1189.42 65.412C1184.4 68.2333 1178.84 69.644 1172.77 69.644ZM1172.77 55.292C1177.92 55.292 1182.03 53.5747 1185.1 50.14C1188.23 46.7053 1189.79 42.1667 1189.79 36.524C1189.79 30.82 1188.23 26.2813 1185.1 22.908C1182.03 19.4733 1177.92 17.756 1172.77 17.756C1167.56 17.756 1163.39 19.4427 1160.26 22.816C1157.19 26.1893 1155.66 30.7587 1155.66 36.524C1155.66 42.228 1157.19 46.7973 1160.26 50.232C1163.39 53.6053 1167.56 55.292 1172.77 55.292ZM1238.29 69.644C1233.57 69.644 1229.33 68.8773 1225.59 67.344C1221.85 65.8107 1218.85 63.5413 1216.58 60.536C1214.37 57.5307 1213.2 53.912 1213.08 49.68H1229.82C1230.07 52.072 1230.9 53.912 1232.31 55.2C1233.72 56.4267 1235.56 57.04 1237.83 57.04C1240.16 57.04 1242 56.5187 1243.35 55.476C1244.7 54.372 1245.37 52.8693 1245.37 50.968C1245.37 49.3733 1244.82 48.0547 1243.72 47.012C1242.67 45.9693 1241.36 45.1107 1239.76 44.436C1238.23 43.7613 1236.02 42.9947 1233.14 42.136C1228.97 40.848 1225.56 39.56 1222.92 38.272C1220.29 36.984 1218.02 35.0827 1216.12 32.568C1214.22 30.0533 1213.26 26.772 1213.26 22.724C1213.26 16.7133 1215.44 12.0213 1219.8 8.648C1224.15 5.21333 1229.82 3.496 1236.82 3.496C1243.93 3.496 1249.67 5.21333 1254.02 8.648C1258.38 12.0213 1260.71 16.744 1261.01 22.816H1243.99C1243.87 20.7307 1243.1 19.1053 1241.69 17.94C1240.28 16.7133 1238.47 16.1 1236.26 16.1C1234.36 16.1 1232.83 16.6213 1231.66 17.664C1230.5 18.6453 1229.92 20.0867 1229.92 21.988C1229.92 24.0733 1230.9 25.6987 1232.86 26.864C1234.82 28.0293 1237.89 29.2867 1242.06 30.636C1246.23 32.0467 1249.6 33.396 1252.18 34.684C1254.82 35.972 1257.09 37.8427 1258.99 40.296C1260.89 42.7493 1261.84 45.908 1261.84 49.772C1261.84 53.452 1260.89 56.7947 1258.99 59.8C1257.15 62.8053 1254.45 65.1973 1250.89 66.976C1247.34 68.7547 1243.13 69.644 1238.29 69.644Z"/>
</mask>
<path d="M573.348 35.512L575.966 36.9778L575.972 36.9668L575.978 36.9558L573.348 35.512ZM565.436 42.964L564.022 40.3182V40.3182L565.436 42.964ZM542.436 45.816V42.816H539.436V45.816H542.436ZM542.436 69V72H545.436V69H542.436ZM526.704 69H523.704V72H526.704V69ZM526.704 4.416V1.416H523.704V4.416H526.704ZM565.252 7.084L566.594 4.40071L565.252 7.084ZM542.436 17.112V14.112H539.436V17.112H542.436ZM542.436 33.304H539.436V36.304H542.436V33.304ZM572.924 25.208C572.924 28.4699 572.181 31.4044 570.718 34.0682L575.978 36.9558C577.95 33.3636 578.924 29.4287 578.924 25.208H572.924ZM570.73 34.0462C569.333 36.542 567.15 38.6463 564.022 40.3182L566.85 45.6098C570.837 43.4791 573.929 40.6153 575.966 36.9778L570.73 34.0462ZM564.022 40.3182C561.013 41.9264 557.116 42.816 552.188 42.816V48.816C557.809 48.816 562.744 47.8042 566.85 45.6098L564.022 40.3182ZM552.188 42.816H542.436V48.816H552.188V42.816ZM539.436 45.816V69H545.436V45.816H539.436ZM542.436 66H526.704V72H542.436V66ZM529.704 69V4.416H523.704V69H529.704ZM526.704 7.416H552.188V1.416H526.704V7.416ZM552.188 7.416C557.007 7.416 560.874 8.24911 563.91 9.76728L566.594 4.40071C562.515 2.36155 557.673 1.416 552.188 1.416V7.416ZM563.91 9.76728C566.994 11.3092 569.194 13.3695 570.648 15.9269L575.864 12.9611C573.761 9.2625 570.624 6.41609 566.594 4.40071L563.91 9.76728ZM570.648 15.9269C572.139 18.5486 572.924 21.6137 572.924 25.208H578.924C578.924 20.7063 577.93 16.5953 575.864 12.9611L570.648 15.9269ZM550.992 36.304C554.408 36.304 557.537 35.5069 559.784 33.354L555.632 29.022C554.935 29.6904 553.586 30.304 550.992 30.304V36.304ZM559.784 33.354C561.993 31.2369 562.916 28.3735 562.916 25.208H556.916C556.916 27.1945 556.367 28.3178 555.632 29.022L559.784 33.354ZM562.916 25.208C562.916 22.0425 561.993 19.1791 559.784 17.062L555.632 21.394C556.367 22.0982 556.916 23.2215 556.916 25.208H562.916ZM559.784 17.062C557.537 14.9091 554.408 14.112 550.992 14.112V20.112C553.586 20.112 554.935 20.7256 555.632 21.394L559.784 17.062ZM550.992 14.112H542.436V20.112H550.992V14.112ZM539.436 17.112V33.304H545.436V17.112H539.436ZM542.436 36.304H550.992V30.304H542.436V36.304ZM617.418 69L614.791 70.4477L615.646 72H617.418V69ZM603.986 44.62L606.614 43.1723L605.759 41.62H603.986V44.62ZM600.214 44.62V41.62H597.214V44.62H600.214ZM600.214 69V72H603.214V69H600.214ZM584.482 69H581.482V72H584.482V69ZM584.482 4.416V1.416H581.482V4.416H584.482ZM623.858 7.084L622.517 9.76728L622.526 9.77184L622.535 9.77634L623.858 7.084ZM631.954 14.444L629.346 15.9269L629.353 15.9381L629.359 15.9492L631.954 14.444ZM630.942 36.248L628.516 34.4835L628.505 34.498L628.495 34.5127L630.942 36.248ZM620.27 43.424L619.412 40.5495L615.759 41.6406L617.678 44.9344L620.27 43.424ZM635.174 69V72H640.395L637.766 67.4895L635.174 69ZM600.214 33.488H597.214V36.488H600.214V33.488ZM616.406 31.372L614.33 29.206L614.307 29.2281L614.285 29.2507L616.406 31.372ZM616.406 19.596L614.285 21.7173L614.307 21.7399L614.33 21.762L616.406 19.596ZM600.214 17.48V14.48H597.214V17.48H600.214ZM620.046 67.5523L606.614 43.1723L601.359 46.0677L614.791 70.4477L620.046 67.5523ZM603.986 41.62H600.214V47.62H603.986V41.62ZM597.214 44.62V69H603.214V44.62H597.214ZM600.214 66H584.482V72H600.214V66ZM587.482 69V4.416H581.482V69H587.482ZM584.482 7.416H610.886V1.416H584.482V7.416ZM610.886 7.416C615.637 7.416 619.476 8.24688 622.517 9.76728L625.2 4.40071C621.126 2.36378 616.316 1.416 610.886 1.416V7.416ZM622.535 9.77634C625.681 11.3229 627.9 13.3835 629.346 15.9269L634.562 12.9611C632.451 9.24849 629.272 6.4024 625.182 4.39165L622.535 9.77634ZM629.359 15.9492C630.853 18.5253 631.622 21.4342 631.622 24.748H637.622C637.622 20.4564 636.612 16.496 634.549 12.9388L629.359 15.9492ZM631.622 24.748C631.622 28.4272 630.585 31.6388 628.516 34.4835L633.368 38.0125C636.206 34.1106 637.622 29.6555 637.622 24.748H631.622ZM628.495 34.5127C626.561 37.2401 623.62 39.2924 619.412 40.5495L621.129 46.2985C626.366 44.7342 630.539 42.0026 633.389 37.9833L628.495 34.5127ZM617.678 44.9344L632.582 70.5105L637.766 67.4895L622.862 41.9135L617.678 44.9344ZM635.174 66H617.418V72H635.174V66ZM600.214 36.488H609.966V30.488H600.214V36.488ZM609.966 36.488C613.289 36.488 616.345 35.6758 618.527 33.4933L614.285 29.2507C613.646 29.8895 612.408 30.488 609.966 30.488V36.488ZM618.482 33.538C620.691 31.4209 621.614 28.5575 621.614 25.392H615.614C615.614 27.3785 615.065 28.5018 614.33 29.206L618.482 33.538ZM621.614 25.392C621.614 22.2999 620.662 19.5195 618.482 17.43L614.33 21.762C615.094 22.4939 615.614 23.5774 615.614 25.392H621.614ZM618.527 17.4747C616.345 15.2922 613.289 14.48 609.966 14.48V20.48C612.408 20.48 613.646 21.0785 614.285 21.7173L618.527 17.4747ZM609.966 14.48H600.214V20.48H609.966V14.48ZM597.214 17.48V33.488H603.214V17.48H597.214ZM661.61 56.12L659.151 54.4011L655.852 59.12H661.61V56.12ZM689.394 56.12H692.394V53.12H689.394V56.12ZM689.394 69V72H692.394V69H689.394ZM643.762 69H640.762V72H643.762V69ZM643.762 57.04L641.298 55.3288L640.762 56.1005V57.04H643.762ZM671.362 17.296L673.826 19.0072L677.098 14.296H671.362V17.296ZM643.762 17.296H640.762V20.296H643.762V17.296ZM643.762 4.416V1.416H640.762V4.416H643.762ZM689.394 4.416H692.394V1.416H689.394V4.416ZM689.394 16.376L691.853 18.0949L692.394 17.3206V16.376H689.394ZM661.61 59.12H689.394V53.12H661.61V59.12ZM686.394 56.12V69H692.394V56.12H686.394ZM689.394 66H643.762V72H689.394V66ZM646.762 69V57.04H640.762V69H646.762ZM646.226 58.7512L673.826 19.0072L668.898 15.5848L641.298 55.3288L646.226 58.7512ZM671.362 14.296H643.762V20.296H671.362V14.296ZM646.762 17.296V4.416H640.762V17.296H646.762ZM643.762 7.416H689.394V1.416H643.762V7.416ZM686.394 4.416V16.376H692.394V4.416H686.394ZM686.935 14.6571L659.151 54.4011L664.069 57.8389L691.853 18.0949L686.935 14.6571ZM715.77 17.02V14.02H712.77V17.02H715.77ZM715.77 30.084H712.77V33.084H715.77V30.084ZM736.838 30.084H739.838V27.084H736.838V30.084ZM736.838 42.228V45.228H739.838V42.228H736.838ZM715.77 42.228V39.228H712.77V42.228H715.77ZM715.77 56.396H712.77V59.396H715.77V56.396ZM739.598 56.396H742.598V53.396H739.598V56.396ZM739.598 69V72H742.598V69H739.598ZM700.038 69H697.038V72H700.038V69ZM700.038 4.416V1.416H697.038V4.416H700.038ZM739.598 4.416H742.598V1.416H739.598V4.416ZM739.598 17.02V20.02H742.598V17.02H739.598ZM712.77 17.02V30.084H718.77V17.02H712.77ZM715.77 33.084H736.838V27.084H715.77V33.084ZM733.838 30.084V42.228H739.838V30.084H733.838ZM736.838 39.228H715.77V45.228H736.838V39.228ZM712.77 42.228V56.396H718.77V42.228H712.77ZM715.77 59.396H739.598V53.396H715.77V59.396ZM736.598 56.396V69H742.598V56.396H736.598ZM739.598 66H700.038V72H739.598V66ZM703.038 69V4.416H697.038V69H703.038ZM700.038 7.416H739.598V1.416H700.038V7.416ZM736.598 4.416V17.02H742.598V4.416H736.598ZM739.598 14.02H715.77V20.02H739.598V14.02ZM823.32 4.416H826.32V1.416H823.32V4.416ZM823.32 69V72H826.32V69H823.32ZM807.588 69H804.588V72H807.588V69ZM807.588 30.268H810.588L804.777 29.2197L807.588 30.268ZM793.144 69V72H795.227L795.955 70.0482L793.144 69ZM780.448 69L777.638 70.0519L778.368 72H780.448V69ZM765.912 30.176L768.721 29.1241L762.912 30.176H765.912ZM765.912 69V72H768.912V69H765.912ZM750.18 69H747.18V72H750.18V69ZM750.18 4.416V1.416H747.18V4.416H750.18ZM768.764 4.416L771.544 3.28902L770.785 1.416H768.764V4.416ZM786.888 49.128L784.108 50.255L786.902 57.1489L789.672 50.2451L786.888 49.128ZM804.828 4.416V1.416H802.799L802.044 3.29886L804.828 4.416ZM820.32 4.416V69H826.32V4.416H820.32ZM823.32 66H807.588V72H823.32V66ZM810.588 69V30.268H804.588V69H810.588ZM804.777 29.2197L790.333 67.9518L795.955 70.0482L810.399 31.3162L804.777 29.2197ZM793.144 66H780.448V72H793.144V66ZM783.257 67.9481L768.721 29.1241L763.102 31.2279L777.638 70.0519L783.257 67.9481ZM762.912 30.176V69H768.912V30.176H762.912ZM765.912 66H750.18V72H765.912V66ZM753.18 69V4.416H747.18V69H753.18ZM750.18 7.416H768.764V1.416H750.18V7.416ZM765.984 5.54298L784.108 50.255L789.668 48.001L771.544 3.28902L765.984 5.54298ZM789.672 50.2451L807.612 5.53313L802.044 3.29886L784.104 48.0109L789.672 50.2451ZM804.828 7.416H823.32V1.416H804.828V7.416ZM850.733 17.02V14.02H847.733V17.02H850.733ZM850.733 30.084H847.733V33.084H850.733V30.084ZM871.801 30.084H874.801V27.084H871.801V30.084ZM871.801 42.228V45.228H874.801V42.228H871.801ZM850.733 42.228V39.228H847.733V42.228H850.733ZM850.733 56.396H847.733V59.396H850.733V56.396ZM874.561 56.396H877.561V53.396H874.561V56.396ZM874.561 69V72H877.561V69H874.561ZM835.001 69H832.001V72H835.001V69ZM835.001 4.416V1.416H832.001V4.416H835.001ZM874.561 4.416H877.561V1.416H874.561V4.416ZM874.561 17.02V20.02H877.561V17.02H874.561ZM847.733 17.02V30.084H853.733V17.02H847.733ZM850.733 33.084H871.801V27.084H850.733V33.084ZM868.801 30.084V42.228H874.801V30.084H868.801ZM871.801 39.228H850.733V45.228H871.801V39.228ZM847.733 42.228V56.396H853.733V42.228H847.733ZM850.733 59.396H874.561V53.396H850.733V59.396ZM871.561 56.396V69H877.561V56.396H871.561ZM874.561 66H835.001V72H874.561V66ZM838.001 69V4.416H832.001V69H838.001ZM835.001 7.416H874.561V1.416H835.001V7.416ZM871.561 4.416V17.02H877.561V4.416H871.561ZM874.561 14.02H850.733V20.02H874.561V14.02ZM922.586 69L920.199 70.8172L921.1 72H922.586V69ZM900.874 40.48L903.261 38.6628L897.874 31.5867V40.48H900.874ZM900.874 69V72H903.874V69H900.874ZM885.142 69H882.142V72H885.142V69ZM885.142 4.416V1.416H882.142V4.416H885.142ZM900.874 4.416H903.874V1.416H900.874V4.416ZM900.874 32.752H897.874V41.6598L903.263 34.5669L900.874 32.752ZM922.402 4.416V1.416H920.914L920.014 2.60114L922.402 4.416ZM940.894 4.416L943.248 6.2767L947.091 1.416H940.894V4.416ZM915.87 36.064L913.517 34.2033L912.049 36.0605L913.514 37.9204L915.87 36.064ZM941.814 69V72H947.997L944.171 67.1436L941.814 69ZM924.973 67.1828L903.261 38.6628L898.487 42.2972L920.199 70.8172L924.973 67.1828ZM897.874 40.48V69H903.874V40.48H897.874ZM900.874 66H885.142V72H900.874V66ZM888.142 69V4.416H882.142V69H888.142ZM885.142 7.416H900.874V1.416H885.142V7.416ZM897.874 4.416V32.752H903.874V4.416H897.874ZM903.263 34.5669L924.791 6.23085L920.014 2.60114L898.486 30.9371L903.263 34.5669ZM922.402 7.416H940.894V1.416H922.402V7.416ZM938.541 2.55529L913.517 34.2033L918.224 37.9247L943.248 6.2767L938.541 2.55529ZM913.514 37.9204L939.458 70.8564L944.171 67.1436L918.227 34.2076L913.514 37.9204ZM941.814 66H922.586V72H941.814V66ZM1042.66 4.416H1045.66V1.416H1042.66V4.416ZM1042.66 69V72H1045.66V69H1042.66ZM1026.93 69H1023.93V72H1026.93V69ZM1026.93 30.268H1029.93L1024.12 29.2197L1026.93 30.268ZM1012.49 69V72H1014.57L1015.3 70.0482L1012.49 69ZM999.791 69L996.981 70.0519L997.711 72H999.791V69ZM985.255 30.176L988.065 29.1241L982.255 30.176H985.255ZM985.255 69V72H988.255V69H985.255ZM969.523 69H966.523V72H969.523V69ZM969.523 4.416V1.416H966.523V4.416H969.523ZM988.107 4.416L990.887 3.28902L990.128 1.416H988.107V4.416ZM1006.23 49.128L1003.45 50.255L1006.25 57.1489L1009.02 50.2451L1006.23 49.128ZM1024.17 4.416V1.416H1022.14L1021.39 3.29886L1024.17 4.416ZM1039.66 4.416V69H1045.66V4.416H1039.66ZM1042.66 66H1026.93V72H1042.66V66ZM1029.93 69V30.268H1023.93V69H1029.93ZM1024.12 29.2197L1009.68 67.9518L1015.3 70.0482L1029.74 31.3162L1024.12 29.2197ZM1012.49 66H999.791V72H1012.49V66ZM1002.6 67.9481L988.065 29.1241L982.445 31.2279L996.981 70.0519L1002.6 67.9481ZM982.255 30.176V69H988.255V30.176H982.255ZM985.255 66H969.523V72H985.255V66ZM972.523 69V4.416H966.523V69H972.523ZM969.523 7.416H988.107V1.416H969.523V7.416ZM985.327 5.54298L1003.45 50.255L1009.01 48.001L990.887 3.28902L985.327 5.54298ZM1009.02 50.2451L1026.96 5.53313L1021.39 3.29886L1003.45 48.0109L1009.02 50.2451ZM1024.17 7.416H1042.66V1.416H1024.17V7.416ZM1070.08 4.416H1073.08V1.416H1070.08V4.416ZM1070.08 69V72H1073.08V69H1070.08ZM1054.34 69H1051.34V72H1054.34V69ZM1054.34 4.416V1.416H1051.34V4.416H1054.34ZM1067.08 4.416V69H1073.08V4.416H1067.08ZM1070.08 66H1054.34V72H1070.08V66ZM1057.34 69V4.416H1051.34V69H1057.34ZM1054.34 7.416H1070.08V1.416H1054.34V7.416ZM1114.78 69L1112.15 70.4477L1113.01 72H1114.78V69ZM1101.35 44.62L1103.98 43.1723L1103.12 41.62H1101.35V44.62ZM1097.58 44.62V41.62H1094.58V44.62H1097.58ZM1097.58 69V72H1100.58V69H1097.58ZM1081.84 69H1078.84V72H1081.84V69ZM1081.84 4.416V1.416H1078.84V4.416H1081.84ZM1121.22 7.084L1119.88 9.76728L1119.89 9.77184L1119.9 9.77634L1121.22 7.084ZM1129.32 14.444L1126.71 15.9269L1126.72 15.9381L1126.72 15.9492L1129.32 14.444ZM1128.3 36.248L1125.88 34.4835L1125.87 34.498L1125.86 34.5127L1128.3 36.248ZM1117.63 43.424L1116.77 40.5495L1113.12 41.6406L1115.04 44.9344L1117.63 43.424ZM1132.54 69V72H1137.76L1135.13 67.4895L1132.54 69ZM1097.58 33.488H1094.58V36.488H1097.58V33.488ZM1113.77 31.372L1111.69 29.206L1111.67 29.2281L1111.65 29.2507L1113.77 31.372ZM1113.77 19.596L1111.65 21.7173L1111.67 21.7399L1111.69 21.762L1113.77 19.596ZM1097.58 17.48V14.48H1094.58V17.48H1097.58ZM1117.41 67.5523L1103.98 43.1723L1098.72 46.0677L1112.15 70.4477L1117.41 67.5523ZM1101.35 41.62H1097.58V47.62H1101.35V41.62ZM1094.58 44.62V69H1100.58V44.62H1094.58ZM1097.58 66H1081.84V72H1097.58V66ZM1084.84 69V4.416H1078.84V69H1084.84ZM1081.84 7.416H1108.25V1.416H1081.84V7.416ZM1108.25 7.416C1113 7.416 1116.84 8.24688 1119.88 9.76728L1122.56 4.40071C1118.49 2.36378 1113.68 1.416 1108.25 1.416V7.416ZM1119.9 9.77634C1123.04 11.3229 1125.26 13.3835 1126.71 15.9269L1131.92 12.9611C1129.81 9.24849 1126.64 6.4024 1122.54 4.39165L1119.9 9.77634ZM1126.72 15.9492C1128.22 18.5253 1128.98 21.4342 1128.98 24.748H1134.98C1134.98 20.4564 1133.98 16.496 1131.91 12.9388L1126.72 15.9492ZM1128.98 24.748C1128.98 28.4272 1127.95 31.6388 1125.88 34.4835L1130.73 38.0125C1133.57 34.1106 1134.98 29.6555 1134.98 24.748H1128.98ZM1125.86 34.5127C1123.92 37.2401 1120.98 39.2924 1116.77 40.5495L1118.49 46.2985C1123.73 44.7342 1127.9 42.0026 1130.75 37.9833L1125.86 34.5127ZM1115.04 44.9344L1129.94 70.5105L1135.13 67.4895L1120.22 41.9135L1115.04 44.9344ZM1132.54 66H1114.78V72H1132.54V66ZM1097.58 36.488H1107.33V30.488H1097.58V36.488ZM1107.33 36.488C1110.65 36.488 1113.71 35.6758 1115.89 33.4933L1111.65 29.2507C1111.01 29.8895 1109.77 30.488 1107.33 30.488V36.488ZM1115.84 33.538C1118.05 31.4209 1118.98 28.5575 1118.98 25.392H1112.98C1112.98 27.3785 1112.43 28.5018 1111.69 29.206L1115.84 33.538ZM1118.98 25.392C1118.98 22.2999 1118.02 19.5195 1115.84 17.43L1111.69 21.762C1112.46 22.4939 1112.98 23.5774 1112.98 25.392H1118.98ZM1115.89 17.4747C1113.71 15.2922 1110.65 14.48 1107.33 14.48V20.48C1109.77 20.48 1111.01 21.0785 1111.65 21.7173L1115.89 17.4747ZM1107.33 14.48H1097.58V20.48H1107.33V14.48ZM1094.58 17.48V33.488H1100.58V17.48H1094.58ZM1156.03 65.412L1154.56 68.0284L1154.57 68.0322L1154.57 68.036L1156.03 65.412ZM1143.98 53.636L1141.38 55.1379L1141.39 55.1564L1141.4 55.1749L1143.98 53.636ZM1143.98 19.504L1141.4 17.9651L1141.39 17.9768L1141.39 17.9885L1143.98 19.504ZM1156.03 7.728L1154.57 5.10404L1154.57 5.10779L1154.56 5.11157L1156.03 7.728ZM1189.42 7.728L1187.96 10.3444L1187.96 10.3482L1187.97 10.352L1189.42 7.728ZM1201.38 19.504L1198.78 20.9958L1198.79 21.0077L1198.8 21.0195L1201.38 19.504ZM1201.38 53.636L1203.97 55.1515L1203.98 55.1447L1203.98 55.1379L1201.38 53.636ZM1189.42 65.412L1190.89 68.0284L1189.42 65.412ZM1185.1 50.14L1182.88 48.12L1182.87 48.1309L1182.86 48.142L1185.1 50.14ZM1185.1 22.908L1182.86 24.906L1182.88 24.9271L1182.9 24.9478L1185.1 22.908ZM1160.26 22.816L1158.06 20.7762L1158.05 20.787L1158.04 20.798L1160.26 22.816ZM1160.26 50.232L1158.02 52.23L1158.04 52.2511L1158.06 52.2718L1160.26 50.232ZM1172.77 66.644C1167.19 66.644 1162.11 65.3519 1157.48 62.788L1154.57 68.036C1160.13 71.1148 1166.21 72.644 1172.77 72.644V66.644ZM1157.5 62.7956C1152.93 60.2348 1149.29 56.6843 1146.55 52.0971L1141.4 55.1749C1144.67 60.6464 1149.07 64.9465 1154.56 68.0284L1157.5 62.7956ZM1146.57 52.1341C1143.91 47.5338 1142.56 42.3545 1142.56 36.524H1136.56C1136.56 43.3282 1138.15 49.5569 1141.38 55.1379L1146.57 52.1341ZM1142.56 36.524C1142.56 30.6931 1143.91 25.5508 1146.57 21.0195L1141.39 17.9885C1138.15 23.5158 1136.56 29.7202 1136.56 36.524H1142.56ZM1146.55 21.0429C1149.29 16.4557 1152.93 12.9052 1157.5 10.3444L1154.56 5.11157C1149.07 8.19349 1144.67 12.4936 1141.4 17.9651L1146.55 21.0429ZM1157.48 10.352C1162.11 7.78811 1167.19 6.496 1172.77 6.496V0.495998C1166.21 0.495998 1160.13 2.02522 1154.57 5.10404L1157.48 10.352ZM1172.77 6.496C1178.36 6.496 1183.4 7.78804 1187.96 10.3444L1190.89 5.11157C1185.39 2.02529 1179.33 0.495998 1172.77 0.495998V6.496ZM1187.97 10.352C1192.58 12.909 1196.17 16.4436 1198.78 20.9958L1203.99 18.0122C1200.83 12.5057 1196.45 8.18971 1190.88 5.10404L1187.97 10.352ZM1198.8 21.0195C1201.45 25.5508 1202.8 30.6931 1202.8 36.524H1208.8C1208.8 29.7202 1207.21 23.5158 1203.97 17.9885L1198.8 21.0195ZM1202.8 36.524C1202.8 42.3545 1201.45 47.5338 1198.79 52.1341L1203.98 55.1379C1207.21 49.5569 1208.8 43.3282 1208.8 36.524H1202.8ZM1198.8 52.1205C1196.12 56.6948 1192.52 60.2379 1187.96 62.7956L1190.89 68.0284C1196.39 64.9434 1200.76 60.6358 1203.97 55.1515L1198.8 52.1205ZM1187.96 62.7956C1183.4 65.352 1178.36 66.644 1172.77 66.644V72.644C1179.33 72.644 1185.39 71.1147 1190.89 68.0284L1187.96 62.7956ZM1172.77 58.292C1178.67 58.292 1183.63 56.29 1187.34 52.138L1182.86 48.142C1180.44 50.8593 1177.18 52.292 1172.77 52.292V58.292ZM1187.32 52.16C1191.05 48.0597 1192.79 42.7453 1192.79 36.524H1186.79C1186.79 41.5881 1185.4 45.3509 1182.88 48.12L1187.32 52.16ZM1192.79 36.524C1192.79 30.2535 1191.06 24.9214 1187.3 20.8682L1182.9 24.9478C1185.4 27.6413 1186.79 31.3865 1186.79 36.524H1192.79ZM1187.34 20.91C1183.63 16.758 1178.67 14.756 1172.77 14.756V20.756C1177.18 20.756 1180.44 22.1887 1182.86 24.906L1187.34 20.91ZM1172.77 14.756C1166.85 14.756 1161.83 16.7061 1158.06 20.7762L1162.46 24.8558C1164.94 22.1792 1168.27 20.756 1172.77 20.756V14.756ZM1158.04 20.798C1154.35 24.8584 1152.66 30.2172 1152.66 36.524H1158.66C1158.66 31.3001 1160.04 27.5203 1162.48 24.834L1158.04 20.798ZM1152.66 36.524C1152.66 42.7817 1154.36 48.1227 1158.02 52.23L1162.5 48.234C1160.03 45.472 1158.66 41.6743 1158.66 36.524H1152.66ZM1158.06 52.2718C1161.83 56.3419 1166.85 58.292 1172.77 58.292V52.292C1168.27 52.292 1164.94 50.8688 1162.46 48.1922L1158.06 52.2718ZM1225.59 67.344L1224.46 70.1199L1225.59 67.344ZM1216.58 60.536L1214.16 62.3122L1214.17 62.3281L1214.18 62.3438L1216.58 60.536ZM1213.08 49.68V46.68H1209.99L1210.08 49.7669L1213.08 49.68ZM1229.82 49.68L1232.81 49.3739L1232.53 46.68H1229.82V49.68ZM1232.31 55.2L1230.29 57.4155L1230.31 57.44L1230.34 57.4638L1232.31 55.2ZM1243.35 55.476L1245.18 57.8499L1245.22 57.8243L1245.25 57.7979L1243.35 55.476ZM1243.72 47.012L1241.6 49.1333L1241.63 49.1636L1241.66 49.193L1243.72 47.012ZM1239.76 44.436L1238.55 47.1819L1238.57 47.1906L1238.59 47.1989L1239.76 44.436ZM1233.14 42.136L1232.25 45.0024L1232.27 45.0069L1232.28 45.0112L1233.14 42.136ZM1222.92 38.272L1221.61 40.9677L1222.92 38.272ZM1216.12 32.568L1218.51 30.7587V30.7587L1216.12 32.568ZM1219.8 8.648L1221.63 11.0196L1221.64 11.0116L1221.65 11.0035L1219.8 8.648ZM1254.02 8.648L1252.16 11.0035L1252.17 11.0116L1252.18 11.0196L1254.02 8.648ZM1261.01 22.816V25.816H1264.17L1264.01 22.6647L1261.01 22.816ZM1243.99 22.816L1241 22.9922L1241.16 25.816H1243.99V22.816ZM1241.69 17.94L1239.72 20.2038L1239.75 20.2287L1239.78 20.2529L1241.69 17.94ZM1231.66 17.664L1233.6 19.9587L1233.63 19.9297L1233.67 19.8997L1231.66 17.664ZM1232.86 26.864L1234.39 24.2844L1232.86 26.864ZM1242.06 30.636L1243.02 27.7942L1243 27.7878L1242.98 27.7817L1242.06 30.636ZM1252.18 34.684L1250.84 37.3673L1250.85 37.3736L1250.86 37.3797L1252.18 34.684ZM1258.99 40.296L1256.62 42.1337L1258.99 40.296ZM1258.99 59.8L1256.45 58.1961L1256.44 58.2147L1256.43 58.2335L1258.99 59.8ZM1250.89 66.976L1249.55 64.2927L1250.89 66.976ZM1238.29 66.644C1233.89 66.644 1230.06 65.9308 1226.73 64.5681L1224.46 70.1199C1228.61 71.8239 1233.24 72.644 1238.29 72.644V66.644ZM1226.73 64.5681C1223.45 63.2233 1220.89 61.2723 1218.97 58.7282L1214.18 62.3438C1216.8 65.8104 1220.25 68.398 1224.46 70.1199L1226.73 64.5681ZM1218.99 58.7598C1217.19 56.3101 1216.19 53.3014 1216.08 49.5931L1210.08 49.7669C1210.22 54.5226 1211.54 58.7513 1214.16 62.3122L1218.99 58.7598ZM1213.08 52.68H1229.82V46.68H1213.08V52.68ZM1226.84 49.9861C1227.14 52.9145 1228.2 55.5119 1230.29 57.4155L1234.33 52.9845C1233.6 52.3121 1233 51.2295 1232.81 49.3739L1226.84 49.9861ZM1230.34 57.4638C1232.41 59.2615 1235 60.04 1237.83 60.04V54.04C1236.12 54.04 1235.03 53.5918 1234.28 52.9362L1230.34 57.4638ZM1237.83 60.04C1240.58 60.04 1243.15 59.4244 1245.18 57.8499L1241.51 53.1021C1240.85 53.6129 1239.74 54.04 1237.83 54.04V60.04ZM1245.25 57.7979C1247.36 56.0678 1248.37 53.6763 1248.37 50.968H1242.37C1242.37 52.0624 1242.03 52.6762 1241.45 53.1541L1245.25 57.7979ZM1248.37 50.968C1248.37 48.5944 1247.51 46.4715 1245.78 44.831L1241.66 49.193C1242.13 49.6378 1242.37 50.1522 1242.37 50.968H1248.37ZM1245.84 44.8907C1244.48 43.5316 1242.82 42.4725 1240.93 41.6731L1238.59 47.1989C1239.89 47.7488 1240.87 48.4071 1241.6 49.1333L1245.84 44.8907ZM1240.97 41.6901C1239.27 40.9404 1236.92 40.1319 1233.99 39.2608L1232.28 45.0112C1235.12 45.8574 1237.19 46.5823 1238.55 47.1819L1240.97 41.6901ZM1234.02 39.2696C1229.94 38.0075 1226.69 36.7722 1224.24 35.5763L1221.61 40.9677C1224.43 42.3478 1228 43.6885 1232.25 45.0024L1234.02 39.2696ZM1224.24 35.5763C1222.06 34.5102 1220.15 32.9259 1218.51 30.7587L1213.72 34.3773C1215.89 37.2394 1218.52 39.4578 1221.61 40.9677L1224.24 35.5763ZM1218.51 30.7587C1217.1 28.8965 1216.26 26.3057 1216.26 22.724H1210.26C1210.26 27.2383 1211.33 31.2101 1213.72 34.3773L1218.51 30.7587ZM1216.26 22.724C1216.26 17.5439 1218.09 13.7677 1221.63 11.0196L1217.96 6.27635C1212.8 10.2749 1210.26 15.8828 1210.26 22.724H1216.26ZM1221.65 11.0035C1225.35 8.08506 1230.32 6.496 1236.82 6.496V0.495998C1229.33 0.495998 1222.95 2.34161 1217.94 6.2925L1221.65 11.0035ZM1236.82 6.496C1243.45 6.496 1248.47 8.0919 1252.16 11.0035L1255.88 6.2925C1250.86 2.33476 1244.41 0.495998 1236.82 0.495998V6.496ZM1252.18 11.0196C1255.77 13.7977 1257.75 17.667 1258.02 22.9673L1264.01 22.6647C1263.66 15.821 1260.98 10.2449 1255.86 6.27635L1252.18 11.0196ZM1261.01 19.816H1243.99V25.816H1261.01V19.816ZM1246.99 22.6398C1246.82 19.8522 1245.75 17.4006 1243.6 15.6271L1239.78 20.2529C1240.46 20.8101 1240.92 21.6092 1241 22.9922L1246.99 22.6398ZM1243.66 15.6762C1241.61 13.8914 1239.06 13.1 1236.26 13.1V19.1C1237.89 19.1 1238.96 19.5353 1239.72 20.2038L1243.66 15.6762ZM1236.26 13.1C1233.79 13.1 1231.49 13.7924 1229.66 15.4283L1233.67 19.8997C1234.17 19.4503 1234.93 19.1 1236.26 19.1V13.1ZM1229.73 15.3693C1227.73 17.0582 1226.92 19.4403 1226.92 21.988H1232.92C1232.92 20.733 1233.27 20.2324 1233.6 19.9587L1229.73 15.3693ZM1226.92 21.988C1226.92 25.2476 1228.56 27.7994 1231.33 29.4436L1234.39 24.2844C1233.24 23.5979 1232.92 22.899 1232.92 21.988H1226.92ZM1231.33 29.4436C1233.59 30.7838 1236.91 32.1229 1241.14 33.4903L1242.98 27.7817C1238.87 26.4505 1236.06 25.2748 1234.39 24.2844L1231.33 29.4436ZM1241.1 33.4778C1245.2 34.8649 1248.43 36.1639 1250.84 37.3673L1253.52 32.0007C1250.78 30.6281 1247.26 29.2285 1243.02 27.7942L1241.1 33.4778ZM1250.86 37.3797C1253.07 38.4546 1254.98 40.0219 1256.62 42.1337L1261.36 38.4583C1259.19 35.6634 1256.57 33.4894 1253.5 31.9883L1250.86 37.3797ZM1256.62 42.1337C1258.02 43.9433 1258.84 46.4071 1258.84 49.772H1264.84C1264.84 45.4089 1263.76 41.5554 1261.36 38.4583L1256.62 42.1337ZM1258.84 49.772C1258.84 52.905 1258.04 55.6879 1256.45 58.1961L1261.52 61.4039C1263.74 57.9014 1264.84 53.999 1264.84 49.772H1258.84ZM1256.43 58.2335C1254.92 60.7005 1252.67 62.732 1249.55 64.2927L1252.23 69.6593C1256.23 67.6627 1259.38 64.9101 1261.55 61.3665L1256.43 58.2335ZM1249.55 64.2927C1246.49 65.8225 1242.77 66.644 1238.29 66.644V72.644C1243.5 72.644 1248.18 71.6868 1252.23 69.6593L1249.55 64.2927Z" fill="var(--color-dark-1)" mask="url(#path-10-outside-1_3737_44)"/>
<path d="M536.496 271.364C534.104 271.364 531.955 270.948 530.048 270.116C528.176 269.249 526.703 268.071 525.628 266.58C524.553 265.055 523.999 263.304 523.964 261.328H529.008C529.181 263.027 529.875 264.465 531.088 265.644C532.336 266.788 534.139 267.36 536.496 267.36C538.749 267.36 540.517 266.805 541.8 265.696C543.117 264.552 543.776 263.096 543.776 261.328C543.776 259.941 543.395 258.815 542.632 257.948C541.869 257.081 540.916 256.423 539.772 255.972C538.628 255.521 537.085 255.036 535.144 254.516C532.752 253.892 530.828 253.268 529.372 252.644C527.951 252.02 526.72 251.049 525.68 249.732C524.675 248.38 524.172 246.577 524.172 244.324C524.172 242.348 524.675 240.597 525.68 239.072C526.685 237.547 528.089 236.368 529.892 235.536C531.729 234.704 533.827 234.288 536.184 234.288C539.581 234.288 542.355 235.137 544.504 236.836C546.688 238.535 547.919 240.788 548.196 243.596H542.996C542.823 242.209 542.095 240.996 540.812 239.956C539.529 238.881 537.831 238.344 535.716 238.344C533.74 238.344 532.128 238.864 530.88 239.904C529.632 240.909 529.008 242.331 529.008 244.168C529.008 245.485 529.372 246.56 530.1 247.392C530.863 248.224 531.781 248.865 532.856 249.316C533.965 249.732 535.508 250.217 537.484 250.772C539.876 251.431 541.8 252.089 543.256 252.748C544.712 253.372 545.96 254.36 547 255.712C548.04 257.029 548.56 258.832 548.56 261.12C548.56 262.888 548.092 264.552 547.156 266.112C546.22 267.672 544.833 268.937 542.996 269.908C541.159 270.879 538.992 271.364 536.496 271.364ZM563.376 246.404V263.2C563.376 264.587 563.67 265.575 564.26 266.164C564.849 266.719 565.872 266.996 567.328 266.996H570.812V271H566.548C563.913 271 561.937 270.393 560.62 269.18C559.302 267.967 558.644 265.973 558.644 263.2V246.404H554.952V242.504H558.644V235.328H563.376V242.504H570.812V246.404H563.376ZM583.357 247.132C584.189 245.503 585.368 244.237 586.893 243.336C588.453 242.435 590.342 241.984 592.561 241.984V246.872H591.313C586.009 246.872 583.357 249.749 583.357 255.504V271H578.625V242.504H583.357V247.132ZM612.531 271.468C609.862 271.468 607.435 270.861 605.251 269.648C603.102 268.435 601.403 266.719 600.155 264.5C598.942 262.247 598.335 259.647 598.335 256.7C598.335 253.788 598.959 251.223 600.207 249.004C601.49 246.751 603.223 245.035 605.407 243.856C607.591 242.643 610.035 242.036 612.739 242.036C615.443 242.036 617.887 242.643 620.071 243.856C622.255 245.035 623.971 246.733 625.219 248.952C626.502 251.171 627.143 253.753 627.143 256.7C627.143 259.647 626.485 262.247 625.167 264.5C623.885 266.719 622.134 268.435 619.915 269.648C617.697 270.861 615.235 271.468 612.531 271.468ZM612.531 267.308C614.23 267.308 615.825 266.909 617.315 266.112C618.806 265.315 620.002 264.119 620.903 262.524C621.839 260.929 622.307 258.988 622.307 256.7C622.307 254.412 621.857 252.471 620.955 250.876C620.054 249.281 618.875 248.103 617.419 247.34C615.963 246.543 614.386 246.144 612.687 246.144C610.954 246.144 609.359 246.543 607.903 247.34C606.482 248.103 605.338 249.281 604.471 250.876C603.605 252.471 603.171 254.412 603.171 256.7C603.171 259.023 603.587 260.981 604.419 262.576C605.286 264.171 606.43 265.367 607.851 266.164C609.273 266.927 610.833 267.308 612.531 267.308ZM649.329 241.984C652.796 241.984 655.604 243.041 657.753 245.156C659.902 247.236 660.977 250.252 660.977 254.204V271H656.297V254.88C656.297 252.037 655.586 249.871 654.165 248.38C652.744 246.855 650.802 246.092 648.341 246.092C645.845 246.092 643.852 246.872 642.361 248.432C640.905 249.992 640.177 252.263 640.177 255.244V271H635.445V242.504H640.177V246.56C641.113 245.104 642.378 243.977 643.973 243.18C645.602 242.383 647.388 241.984 649.329 241.984ZM695.331 242.504L678.171 284.416H673.283L678.899 270.688L667.407 242.504H672.659L681.603 265.592L690.443 242.504H695.331ZM720.555 237.876C719.654 237.876 718.891 237.564 718.267 236.94C717.643 236.316 717.331 235.553 717.331 234.652C717.331 233.751 717.643 232.988 718.267 232.364C718.891 231.74 719.654 231.428 720.555 231.428C721.422 231.428 722.15 231.74 722.739 232.364C723.363 232.988 723.675 233.751 723.675 234.652C723.675 235.553 723.363 236.316 722.739 236.94C722.15 237.564 721.422 237.876 720.555 237.876ZM722.843 242.504V271H718.111V242.504H722.843ZM759.019 271.468C756.835 271.468 754.876 271.104 753.143 270.376C751.41 269.613 750.04 268.573 749.035 267.256C748.03 265.904 747.475 264.361 747.371 262.628H752.259C752.398 264.049 753.056 265.211 754.235 266.112C755.448 267.013 757.026 267.464 758.967 267.464C760.77 267.464 762.191 267.065 763.231 266.268C764.271 265.471 764.791 264.465 764.791 263.252C764.791 262.004 764.236 261.085 763.127 260.496C762.018 259.872 760.302 259.265 757.979 258.676C755.864 258.121 754.131 257.567 752.779 257.012C751.462 256.423 750.318 255.573 749.347 254.464C748.411 253.32 747.943 251.829 747.943 249.992C747.943 248.536 748.376 247.201 749.243 245.988C750.11 244.775 751.34 243.821 752.935 243.128C754.53 242.4 756.35 242.036 758.395 242.036C761.55 242.036 764.098 242.833 766.039 244.428C767.98 246.023 769.02 248.207 769.159 250.98H764.427C764.323 249.489 763.716 248.293 762.607 247.392C761.532 246.491 760.076 246.04 758.239 246.04C756.54 246.04 755.188 246.404 754.183 247.132C753.178 247.86 752.675 248.813 752.675 249.992C752.675 250.928 752.97 251.708 753.559 252.332C754.183 252.921 754.946 253.407 755.847 253.788C756.783 254.135 758.066 254.533 759.695 254.984C761.74 255.539 763.404 256.093 764.687 256.648C765.97 257.168 767.062 257.965 767.963 259.04C768.899 260.115 769.384 261.519 769.419 263.252C769.419 264.812 768.986 266.216 768.119 267.464C767.252 268.712 766.022 269.7 764.427 270.428C762.867 271.121 761.064 271.468 759.019 271.468ZM794.091 271L782.911 258.416V271H778.179V232.52H782.911V255.14L793.883 242.504H800.487L787.071 256.7L800.539 271H794.091ZM811.753 232.52V271H807.021V232.52H811.753ZM847.898 255.66C847.898 256.561 847.846 257.515 847.742 258.52H824.966C825.139 261.328 826.092 263.529 827.826 265.124C829.594 266.684 831.726 267.464 834.222 267.464C836.267 267.464 837.966 266.996 839.318 266.06C840.704 265.089 841.675 263.807 842.23 262.212H847.326C846.563 264.951 845.038 267.187 842.75 268.92C840.462 270.619 837.619 271.468 834.222 271.468C831.518 271.468 829.091 270.861 826.942 269.648C824.827 268.435 823.163 266.719 821.95 264.5C820.736 262.247 820.13 259.647 820.13 256.7C820.13 253.753 820.719 251.171 821.898 248.952C823.076 246.733 824.723 245.035 826.838 243.856C828.987 242.643 831.448 242.036 834.222 242.036C836.926 242.036 839.318 242.625 841.398 243.804C843.478 244.983 845.072 246.612 846.182 248.692C847.326 250.737 847.898 253.06 847.898 255.66ZM843.01 254.672C843.01 252.869 842.611 251.327 841.814 250.044C841.016 248.727 839.924 247.739 838.538 247.08C837.186 246.387 835.678 246.04 834.014 246.04C831.622 246.04 829.576 246.803 827.878 248.328C826.214 249.853 825.26 251.968 825.018 254.672H843.01ZM860.956 247.756C861.892 246.127 863.278 244.775 865.116 243.7C866.988 242.591 869.154 242.036 871.616 242.036C874.146 242.036 876.434 242.643 878.48 243.856C880.56 245.069 882.189 246.785 883.368 249.004C884.546 251.188 885.136 253.736 885.136 256.648C885.136 259.525 884.546 262.091 883.368 264.344C882.189 266.597 880.56 268.348 878.48 269.596C876.434 270.844 874.146 271.468 871.616 271.468C869.189 271.468 867.04 270.931 865.168 269.856C863.33 268.747 861.926 267.377 860.956 265.748V284.52H856.224V242.504H860.956V247.756ZM880.3 256.648C880.3 254.499 879.866 252.627 879 251.032C878.133 249.437 876.954 248.224 875.464 247.392C874.008 246.56 872.396 246.144 870.628 246.144C868.894 246.144 867.282 246.577 865.792 247.444C864.336 248.276 863.157 249.507 862.256 251.136C861.389 252.731 860.956 254.585 860.956 256.7C860.956 258.849 861.389 260.739 862.256 262.368C863.157 263.963 864.336 265.193 865.792 266.06C867.282 266.892 868.894 267.308 870.628 267.308C872.396 267.308 874.008 266.892 875.464 266.06C876.954 265.193 878.133 263.963 879 262.368C879.866 260.739 880.3 258.832 880.3 256.648ZM917.988 242.504L900.828 284.416H895.94L901.556 270.688L890.064 242.504H895.316L904.26 265.592L913.1 242.504H917.988ZM943.212 237.876C942.311 237.876 941.548 237.564 940.924 236.94C940.3 236.316 939.988 235.553 939.988 234.652C939.988 233.751 940.3 232.988 940.924 232.364C941.548 231.74 942.311 231.428 943.212 231.428C944.079 231.428 944.807 231.74 945.396 232.364C946.02 232.988 946.332 233.751 946.332 234.652C946.332 235.553 946.02 236.316 945.396 236.94C944.807 237.564 944.079 237.876 943.212 237.876ZM945.5 242.504V271H940.768V242.504H945.5ZM969.529 241.984C972.996 241.984 975.804 243.041 977.953 245.156C980.103 247.236 981.177 250.252 981.177 254.204V271H976.497V254.88C976.497 252.037 975.787 249.871 974.365 248.38C972.944 246.855 971.003 246.092 968.541 246.092C966.045 246.092 964.052 246.872 962.561 248.432C961.105 249.992 960.377 252.263 960.377 255.244V271H955.645V242.504H960.377V246.56C961.313 245.104 962.579 243.977 964.173 243.18C965.803 242.383 967.588 241.984 969.529 241.984ZM996.759 246.404V263.2C996.759 264.587 997.054 265.575 997.643 266.164C998.232 266.719 999.255 266.996 1000.71 266.996H1004.19V271H999.931C997.296 271 995.32 270.393 994.003 269.18C992.686 267.967 992.027 265.973 992.027 263.2V246.404H988.335V242.504H992.027V235.328H996.759V242.504H1004.19V246.404H996.759ZM1038.01 255.66C1038.01 256.561 1037.96 257.515 1037.85 258.52H1015.08C1015.25 261.328 1016.2 263.529 1017.94 265.124C1019.7 266.684 1021.84 267.464 1024.33 267.464C1026.38 267.464 1028.08 266.996 1029.43 266.06C1030.82 265.089 1031.79 263.807 1032.34 262.212H1037.44C1036.67 264.951 1035.15 267.187 1032.86 268.92C1030.57 270.619 1027.73 271.468 1024.33 271.468C1021.63 271.468 1019.2 270.861 1017.05 269.648C1014.94 268.435 1013.27 266.719 1012.06 264.5C1010.85 262.247 1010.24 259.647 1010.24 256.7C1010.24 253.753 1010.83 251.171 1012.01 248.952C1013.19 246.733 1014.83 245.035 1016.95 243.856C1019.1 242.643 1021.56 242.036 1024.33 242.036C1027.04 242.036 1029.43 242.625 1031.51 243.804C1033.59 244.983 1035.18 246.612 1036.29 248.692C1037.44 250.737 1038.01 253.06 1038.01 255.66ZM1033.12 254.672C1033.12 252.869 1032.72 251.327 1031.92 250.044C1031.13 248.727 1030.04 247.739 1028.65 247.08C1027.3 246.387 1025.79 246.04 1024.12 246.04C1021.73 246.04 1019.69 246.803 1017.99 248.328C1016.32 249.853 1015.37 251.968 1015.13 254.672H1033.12ZM1051.07 247.132C1051.9 245.503 1053.08 244.237 1054.6 243.336C1056.16 242.435 1058.05 241.984 1060.27 241.984V246.872H1059.02C1053.72 246.872 1051.07 249.749 1051.07 255.504V271H1046.33V242.504H1051.07V247.132ZM1081.7 241.984C1085.16 241.984 1087.97 243.041 1090.12 245.156C1092.27 247.236 1093.34 250.252 1093.34 254.204V271H1088.66V254.88C1088.66 252.037 1087.95 249.871 1086.53 248.38C1085.11 246.855 1083.17 246.092 1080.71 246.092C1078.21 246.092 1076.22 246.872 1074.73 248.432C1073.27 249.992 1072.54 252.263 1072.54 255.244V271H1067.81V242.504H1072.54V246.56C1073.48 245.104 1074.75 243.977 1076.34 243.18C1077.97 242.383 1079.76 241.984 1081.7 241.984ZM1129.15 255.66C1129.15 256.561 1129.1 257.515 1129 258.52H1106.22C1106.4 261.328 1107.35 263.529 1109.08 265.124C1110.85 266.684 1112.98 267.464 1115.48 267.464C1117.52 267.464 1119.22 266.996 1120.57 266.06C1121.96 265.089 1122.93 263.807 1123.49 262.212H1128.58C1127.82 264.951 1126.29 267.187 1124.01 268.92C1121.72 270.619 1118.88 271.468 1115.48 271.468C1112.77 271.468 1110.35 270.861 1108.2 269.648C1106.08 268.435 1104.42 266.719 1103.21 264.5C1101.99 262.247 1101.39 259.647 1101.39 256.7C1101.39 253.753 1101.98 251.171 1103.15 248.952C1104.33 246.733 1105.98 245.035 1108.09 243.856C1110.24 242.643 1112.71 242.036 1115.48 242.036C1118.18 242.036 1120.57 242.625 1122.65 243.804C1124.73 244.983 1126.33 246.612 1127.44 248.692C1128.58 250.737 1129.15 253.06 1129.15 255.66ZM1124.27 254.672C1124.27 252.869 1123.87 251.327 1123.07 250.044C1122.27 248.727 1121.18 247.739 1119.79 247.08C1118.44 246.387 1116.93 246.04 1115.27 246.04C1112.88 246.04 1110.83 246.803 1109.13 248.328C1107.47 249.853 1106.52 251.968 1106.27 254.672H1124.27ZM1143.25 246.404V263.2C1143.25 264.587 1143.55 265.575 1144.14 266.164C1144.73 266.719 1145.75 266.996 1147.2 266.996H1150.69V271H1146.42C1143.79 271 1141.81 270.393 1140.5 269.18C1139.18 267.967 1138.52 265.973 1138.52 263.2V246.404H1134.83V242.504H1138.52V235.328H1143.25V242.504H1150.69V246.404H1143.25ZM1170.93 271.468C1168.26 271.468 1165.83 270.861 1163.65 269.648C1161.5 268.435 1159.8 266.719 1158.55 264.5C1157.34 262.247 1156.73 259.647 1156.73 256.7C1156.73 253.788 1157.36 251.223 1158.61 249.004C1159.89 246.751 1161.62 245.035 1163.81 243.856C1165.99 242.643 1168.43 242.036 1171.14 242.036C1173.84 242.036 1176.29 242.643 1178.47 243.856C1180.65 245.035 1182.37 246.733 1183.62 248.952C1184.9 251.171 1185.54 253.753 1185.54 256.7C1185.54 259.647 1184.88 262.247 1183.57 264.5C1182.28 266.719 1180.53 268.435 1178.31 269.648C1176.1 270.861 1173.63 271.468 1170.93 271.468ZM1170.93 267.308C1172.63 267.308 1174.22 266.909 1175.71 266.112C1177.2 265.315 1178.4 264.119 1179.3 262.524C1180.24 260.929 1180.71 258.988 1180.71 256.7C1180.71 254.412 1180.26 252.471 1179.35 250.876C1178.45 249.281 1177.27 248.103 1175.82 247.34C1174.36 246.543 1172.78 246.144 1171.09 246.144C1169.35 246.144 1167.76 246.543 1166.3 247.34C1164.88 248.103 1163.74 249.281 1162.87 250.876C1162 252.471 1161.57 254.412 1161.57 256.7C1161.57 259.023 1161.99 260.981 1162.82 262.576C1163.68 264.171 1164.83 265.367 1166.25 266.164C1167.67 266.927 1169.23 267.308 1170.93 267.308ZM1231.8 242.504L1222.91 271H1218.02L1211.16 248.38L1204.3 271H1199.41L1190.46 242.504H1195.3L1201.85 266.424L1208.92 242.504H1213.76L1220.68 266.476L1227.12 242.504H1231.8ZM1264.58 255.66C1264.58 256.561 1264.53 257.515 1264.42 258.52H1241.65C1241.82 261.328 1242.77 263.529 1244.51 265.124C1246.28 266.684 1248.41 267.464 1250.9 267.464C1252.95 267.464 1254.65 266.996 1256 266.06C1257.39 265.089 1258.36 263.807 1258.91 262.212H1264.01C1263.25 264.951 1261.72 267.187 1259.43 268.92C1257.14 270.619 1254.3 271.468 1250.9 271.468C1248.2 271.468 1245.77 270.861 1243.62 269.648C1241.51 268.435 1239.85 266.719 1238.63 264.5C1237.42 262.247 1236.81 259.647 1236.81 256.7C1236.81 253.753 1237.4 251.171 1238.58 248.952C1239.76 246.733 1241.41 245.035 1243.52 243.856C1245.67 242.643 1248.13 242.036 1250.9 242.036C1253.61 242.036 1256 242.625 1258.08 243.804C1260.16 244.983 1261.75 246.612 1262.86 248.692C1264.01 250.737 1264.58 253.06 1264.58 255.66ZM1259.69 254.672C1259.69 252.869 1259.29 251.327 1258.5 250.044C1257.7 248.727 1256.61 247.739 1255.22 247.08C1253.87 246.387 1252.36 246.04 1250.7 246.04C1248.3 246.04 1246.26 246.803 1244.56 248.328C1242.9 249.853 1241.94 251.968 1241.7 254.672H1259.69Z" fill="var(--color-dark-1)"/>
<path d="M665.144 105.104L638.06 209H607.424L590.848 140.624L573.68 209H543.044L516.7 105.104H543.784L558.732 180.732L577.232 105.104H605.056L622.816 180.732L637.912 105.104H665.144ZM685.976 125.38V146.396H719.868V165.932H685.976V188.724H724.308V209H660.668V105.104H724.308V125.38H685.976ZM786.47 155.72C792.489 157.003 797.324 160.012 800.974 164.748C804.625 169.385 806.45 174.713 806.45 180.732C806.45 189.415 803.392 196.321 797.274 201.452C791.256 206.484 782.82 209 771.966 209H723.57V105.104H770.338C780.896 105.104 789.134 107.521 795.054 112.356C801.073 117.191 804.082 123.752 804.082 132.04C804.082 138.157 802.454 143.239 799.198 147.284C796.041 151.329 791.798 154.141 786.47 155.72ZM748.878 147.136H765.454C769.598 147.136 772.756 146.248 774.926 144.472C777.196 142.597 778.33 139.884 778.33 136.332C778.33 132.78 777.196 130.067 774.926 128.192C772.756 126.317 769.598 125.38 765.454 125.38H748.878V147.136ZM767.526 188.576C771.769 188.576 775.025 187.639 777.294 185.764C779.662 183.791 780.846 180.979 780.846 177.328C780.846 173.677 779.613 170.816 777.146 168.744C774.778 166.672 771.473 165.636 767.23 165.636H748.878V188.576H767.526ZM857.08 105.104C868.032 105.104 877.603 107.275 885.792 111.616C893.982 115.957 900.296 122.075 904.736 129.968C909.275 137.763 911.544 146.791 911.544 157.052C911.544 167.215 909.275 176.243 904.736 184.136C900.296 192.029 893.932 198.147 885.644 202.488C877.455 206.829 867.934 209 857.08 209H818.156V105.104H857.08ZM855.452 187.096C865.023 187.096 872.472 184.481 877.8 179.252C883.128 174.023 885.792 166.623 885.792 157.052C885.792 147.481 883.128 140.032 877.8 134.704C872.472 129.376 865.023 126.712 855.452 126.712H843.464V187.096H855.452ZM933.828 125.38V146.396H967.72V165.932H933.828V188.724H972.16V209H908.52V105.104H972.16V125.38H933.828ZM1009.01 210.036C1001.42 210.036 994.609 208.803 988.59 206.336C982.571 203.869 977.737 200.219 974.086 195.384C970.534 190.549 968.659 184.728 968.462 177.92H995.398C995.793 181.768 997.125 184.728 999.394 186.8C1001.66 188.773 1004.62 189.76 1008.27 189.76C1012.02 189.76 1014.98 188.921 1017.15 187.244C1019.32 185.468 1020.41 183.051 1020.41 179.992C1020.41 177.427 1019.52 175.305 1017.75 173.628C1016.07 171.951 1013.95 170.569 1011.38 169.484C1008.92 168.399 1005.36 167.165 1000.73 165.784C994.017 163.712 988.541 161.64 984.298 159.568C980.055 157.496 976.405 154.437 973.346 150.392C970.287 146.347 968.758 141.068 968.758 134.556C968.758 124.887 972.261 117.339 979.266 111.912C986.271 106.387 995.398 103.624 1006.65 103.624C1018.09 103.624 1027.32 106.387 1034.32 111.912C1041.33 117.339 1045.08 124.936 1045.57 134.704H1018.19C1017.99 131.349 1016.76 128.735 1014.49 126.86C1012.22 124.887 1009.31 123.9 1005.76 123.9C1002.7 123.9 1000.23 124.739 998.358 126.416C996.483 127.995 995.546 130.313 995.546 133.372C995.546 136.727 997.125 139.341 1000.28 141.216C1003.44 143.091 1008.37 145.113 1015.08 147.284C1021.79 149.553 1027.22 151.724 1031.36 153.796C1035.6 155.868 1039.26 158.877 1042.31 162.824C1045.37 166.771 1046.9 171.852 1046.9 178.068C1046.9 183.988 1045.37 189.365 1042.31 194.2C1039.35 199.035 1035.01 202.883 1029.29 205.744C1023.57 208.605 1016.81 210.036 1009.01 210.036ZM1070.62 105.104V209H1045.31V105.104H1070.62ZM1140.76 137.96C1138.88 134.507 1136.17 131.892 1132.62 130.116C1129.16 128.241 1125.07 127.304 1120.33 127.304C1112.14 127.304 1105.58 130.017 1100.65 135.444C1095.72 140.772 1093.25 147.925 1093.25 156.904C1093.25 166.475 1095.81 173.973 1100.95 179.4C1106.17 184.728 1113.33 187.392 1122.41 187.392C1128.62 187.392 1133.85 185.813 1138.09 182.656C1142.43 179.499 1145.59 174.96 1147.57 169.04H1115.45V150.392H1170.51V173.924C1168.63 180.239 1165.42 186.109 1160.89 191.536C1156.45 196.963 1150.77 201.353 1143.87 204.708C1136.96 208.063 1129.16 209.74 1120.48 209.74C1110.22 209.74 1101.04 207.52 1092.95 203.08C1084.96 198.541 1078.7 192.276 1074.16 184.284C1069.72 176.292 1067.5 167.165 1067.5 156.904C1067.5 146.643 1069.72 137.516 1074.16 129.524C1078.7 121.433 1084.96 115.168 1092.95 110.728C1100.95 106.189 1110.07 103.92 1120.33 103.92C1132.77 103.92 1143.22 106.929 1151.71 112.948C1160.29 118.967 1165.97 127.304 1168.73 137.96H1140.76ZM1260.3 209H1234.99L1192.66 144.916V209H1167.36V105.104H1192.66L1234.99 169.484V105.104H1260.3V209Z" fill="var(--color-dark-1)"/>
</g>
<defs>
    <style>
        :root {
            --color-accent-1: #e86344;
            --color-accent-2: #e86344;
            --color-dark-1: #090c0f;
            --color-dark-2: #121416;
            --color-light-1: #fafaf8;
            --color-light-2: #f0f2f4;
            --color-heading: #101b2b;
            --color-text: #5e6265;
            --color-border: #74787b;
        }
        
        @media (prefers-color-scheme:dark) {
            :root {
            --color-dark-1: #fafaf8;
            --color-dark-2: #f0f2f4;
            --color-light-1: #090c0f;
            --color-light-2: #121416;
            --color-heading: #fff;
            --color-text: #bcbcbc;
            --color-border: #74787b;
            }
          }
          
    </style>
<clipPath id="clip0_3737_44">
<rect width="1288" height="282" fill="var(--color-dark-1)"/>
</clipPath>
</defs>
</svg>
